<svg version="1.1" id="Capa_1" xmlns="http://www.w3.org/2000/svg" xmlns:xlink="http://www.w3.org/1999/xlink" x="0px" y="0px"
	 viewBox="0 0 300 300" style="enable-background:new 0 0 300 300;" width="0" height="0" xml:space="preserve">
<g>
	<clipPath id="ah">
	<path d="M284.2,264.9c-0.3,0.9-0.5,1.9-1.1,2.7l-0.2,0.5c0.4,0,0.7,0,1.1,0c-0.1,3.1,0.1,5.8,0.1,9.3c0,2.2,0.1,4.4,0.1,6.6
		c0.1,4.8,0.2,9.7,0.4,14.5c5.1,0.1,10.2,0.3,15.3,0.4c-0.1-2.1-2.5-2.9-4.1-4c-2.2-1.5-3.3-4.4-3.5-7.1c-0.3-2.8,0.2-5.5,0.7-8.2
		c0.6-3.8,1-7.7,1.4-11.6c0.2,0,0.4,0,0.6,0c-0.1-1.2-0.2-2.5-0.3-3.8c0,0,0,0,0,0c0-0.4,0.1-0.8,0.1-1.2c0-0.7,0-1.4-0.4-1.9
		c-0.4-0.4-0.9-0.4-1.4-0.4c-2.5-0.2-4.9-0.3-7.4-0.5l-1.1,3.6c0,0,0,0,0.1,0C284.3,264.3,284.3,264.6,284.2,264.9z"/>
	<path d="M300.1,2.6c0.1-0.4,0.3-0.8,0.4-1.2C234.1,37.5,171.4,74.6,108,120c-1.5-26.2-3.9-50.3-5.4-76.5C102.2,35.1,101,12,98,17
		c-1.2,6.2-0.2,14.6,0.1,21.1c0.6,13.9,1.4,27.8,2.1,41.7c0.8,14.7,1.5,29.3,2.3,44c-34.8,25.1-69,52.1-102.1,81.6
		c36,9.4,71.9,18.8,107.9,28.2c0.5,8.2,1.1,16.4,1.8,24.6c-25.7-2.6-51.4-5.5-76.9-10.8c-6.2-1.3-12.5-2.8-18.1-6.8
		S4.7,229.4,3.6,220.6c-0.4,2.9-0.5,5.9-0.3,8.9c-0.3,12.4,4.9,23.7,9.8,34c1.6,3.3,9.8,4.7,10.7,8.5c0.9,4,10-0.3,11.3,4.9
		c0.5,1.9,6.6-2.1,8-2.2c1.1-0.1,1.7,4.9,5.7,2.8c12.1-6.2,15.7-0.3,21.7,3.9c4.9,3.5,10.8,1.2,16.3,1.8c6.4,0.7,20.5-5.3,25.6-1.5
		c9.1,6.8,30.5,8.2,46.1,9.5c11.7,1,23.6-3.1,36.1-2.3c7.5,0.5,5.2,4,12.7,4.5c12.9,0.8,30.6-1.2,42.4-0.7
		c8.3,0.3,12.8,2.2,18.7,1.4c0.8,1,1.6,1.9,2.4,2.8c0.7-0.9,0.6-2.1,0.3-3.3c1.8-0.5,3.7-1.2,5.9-2.3l-0.6-23.6c0-1.4-1.2-2-1.9-0.9
		c-2.9-0.7-8.6-1-15.6-1.3c-0.1-0.3-0.3-0.6-0.4-0.9c1.7-0.3,3.2-0.7,4.2-0.7c4.9,0,9.8,0.9,14.6,1.7c2,0.3,4,0.7,5.6,2.1
		c0,0,0-0.1,0.1-0.1l1.1-3.7c-8-3.2-16.7-4.1-25.1-2.7c-0.4,0.1-1.1,0.2-1.9,0.3c-2.7-6.1-5.6-15.4-8.3-21.5c1.7-16.1-1-14-6-21
		c-2.4-3.4,0.1-4.4-1-7c2.8,0.7,5.4-3,9.6-2.1c-0.3-2.4-6.1-2.8-7.1-5c-1.1-2.5-0.4-0.5,0.5-3c-0.8-0.5-2.8-2.8-3.8-3.1
		c-0.7-0.3-0.4-1-1.1-0.9c-1.1,0.2-1.5,1.4-2.3,2.9c0.2-1.1-2.3-2.3-3.2-1.7c-1,0.6-1.1,2.1-0.5,3.1c0.3,0.5,1.3,2.4,2.4,4.4
		c-0.3,0.4-0.7,1-1,1.6c-0.4-0.2-0.1-0.5-0.6-0.2c-1-2.4-3-4.6-4-7c-2.7-6.3-6-13-9-21c5.5-41.2,13.5-65.4,29-104.7
		C262.4,46.4,279.8,18.7,300.1,2.6z M173.1,263.4c-8.4,0.2-16.7-0.6-25-1.4c-8.1-0.8-16.2-1.6-24.2-2.4c-3.9-0.4-3.9-0.2-7.8-0.6
		c0,0-0.8-5.3-1-8c-0.3-5.3-0.7-10.7-1-16c11.1,2.9,19.6,5.3,30.4,9.7c9.8,4,31,11.2,48.3,18.2C186.2,262.4,179.6,263.2,173.1,263.4
		z M229.8,265.2c0.5-6.3,1.5-13.4,3.1-18.4c4.1,3.7,5.5,11.6,6.2,18.4C235.9,265.2,232.8,265.2,229.8,265.2z M252.1,264.6
		c0.7,0.6,1.9,0.6,3.3,0.5c0,0.1,0.1,0.2,0.1,0.3c-3.5-0.1-7.2-0.1-10.9-0.2c0,0,0,0,0-0.1c-0.6-10.5-1.2-21.1-1.7-31.6
		c3.9,9.4,7.8,19,11.4,28.5C252.2,262.7,250.7,263.5,252.1,264.6z M232.6,210c-1.5,1.7-3.2,3.7-5.1,1.7c0.1-2.3,0.5-3.8,2.9-6
		C231.2,207.2,231.9,208.6,232.6,210z M228.7,202.3c-3.8,1.4-6.8,5.7-7.4,9.8c-0.3,2.1,0,4.5,1.2,6.2c0.7,0.9,1.8,1.6,2.9,1.8
		c1,0.2,1.5,1.3,1.1,2.3c-0.9,2.5-1.2,5.2-1.5,7.9c-1,11.6-1.5,23.2-1.3,34.9c-3.5,0-6.6,0-9.1,0c1.7-32.8,3.6-58,6.2-79.2
		C223,191.5,225.9,197,228.7,202.3z"/>
		</clipPath>
</g>
</svg>
