<svg version="1.1" id="Capa_1" xmlns="http://www.w3.org/2000/svg" xmlns:xlink="http://www.w3.org/1999/xlink" x="0px" y="0px"
	 viewBox="0 0 300 296.9" style="enable-background:new 0 0 300 296.9;" xml:space="preserve">
<clipPath id="clip-path2">
<path d="M236.4,105.1c5.1,2.1,10.3,5,15.7,5.6c0.4,0,0.4-0.5,0.1-0.6c-0.9-0.3-1.9-0.6-2.8-0.9c3.7,0.6,7.3,0.3,10.4-2.1
	c0.3-0.2,0.7-0.3,1-0.5c0,0,0.1,0,0.1,0c1.2-0.6,2.3-1.2,3.4-1.9c1.3,0.3,2.9,0.4,3.9-0.3c0.5-0.3-0.9-1.1-1.5-1.3
	c0.9-0.6,1.8-1.3,2.8-1.9c1.6,0.1,3.2-0.1,4.6-1c0.4-0.3-0.6-0.9-1.4-1.2c0.4-0.3,0.9-0.6,1.3-0.9c0.3-0.1,0.6-0.1,1-0.2
	c0.2-0.1,0.1-0.3-0.1-0.4c0.9-0.6,1.7-1.1,2.6-1.6c0.8-0.3,1.6-0.7,2.3-1.3c0.9-0.4,1.8-0.8,2.7-1.2c1.2-0.4,0.8-2.3-0.4-2
	c1.1-0.6,2-1.5,2.9-2.6c3.1-0.3,6-1.5,7.3-4.4c0-0.1,0-0.2-0.1-0.3c1.5-0.5,2.6-1.7,2.8-3.7c0.1-0.4-1.3-1.2-1.6-0.9
	c-1.9,1.8-3.5,4.6-6.4,3.2c-0.8-0.4-1.5-0.2-0.5,0.5c0.8,0.5,1.8,0.9,2.8,1.1c-1,0.7-1.9,1.3-3,1.9c0,0,0-0.1-0.1-0.1
	c0-0.2,0-0.5-0.1-0.8c0-0.3-1.2-0.9-1.2-0.5c0,0.2,0,0.5-0.1,0.7c-0.1,0-0.2,0-0.2,0.1c-0.5,0.6-1,1.2-1.5,1.7	"/>

</clipPath>
</svg>
