<svg version="1.1" id="Capa_1" xmlns="http://www.w3.org/2000/svg" xmlns:xlink="http://www.w3.org/1999/xlink" x="0px" y="0px"
	 viewBox="0 0 300 296.9" style="enable-background:new 0 0 300 296.9;" xml:space="preserve">
<clipPath id="lago">
<path d="M34.2,296c11.3,3.5,22.6-4.2,33.2-7.2c3.2-2.6,3.9-7.3,4.5-11.1c3.3-2.2,6-5.6,7-9.5c24.8,3.6,45.8,1.1,64.5-16.8
	c15.7-4.2,31.5-14.3,41.3-27.4c18.5-7.7,28.8-25.2,44.1-37.3c16.9-14.3,40.6-6.3,59.7-12.4c5,0.9,18.2,3,4.8-2.4
	c2.1-1.1,4.5-0.3,6.7-0.1c-2-4-10.3-4.1-14.2-7.4c-7.2-2.8-4.8-5.1-9.6-8.5c-10.7-6.3-21.7-1.3-30.7,4.9c-6.8,1.6-12.4,3.2-18.3,7.1
	c-20.8,15.3-26.7,32.2-56.2,19.8c-10.2-4.9-12.2-18.8-16.6-28.3c-8.6-17.3-9.9-36.1-16.5-54.2c-1.8-6.3-1.1-13.1-1-19.7
	c-1.2-20.6-5.4-40.5-4.1-61.3c-1.8-6.6,3.3-14.4-1.3-20c-5.2,5.3-7.5,14.2-6.6,21.5c0.4,3.2,0.7,7-2,9.4c-1.5-12.1-2-25.4-10.2-35.1
	c-3.1,4.9-0.7,11.5-5,15.2c-0.2-4-1.5-8-3.4-11.5c-9.2,11.2,1,27.6-1.7,40.1C95.9,37.4,92,24.3,82.3,20c-3.6,9.9,5.1,19.5,6.1,29.9
	c-9.9-9.8-25.9-15.4-14,4.5c-5.2,2.1-9.6,8.8-5.8,14c-5.4,1.9-8.3,10.4-3.4,14.1c-4.8,2.3-4.7,8.9-2.8,13.2
	c-1.6-0.1-3.1,0.8-3.6,2.3c-6.1-5.8-9.6-14.4-11.2-22.7c-2-8.6,0.5-17.7-1.7-26.1c-5.1-6.9-6.5,20.4-3.5,23.4
	c-6.3-6.1-4.4-16.1-6.5-23.9c-3.5-11.9-6.8,0.2-5.7,6.3c0.5,4.7,1.1,9.4,2.7,13.8c0.7,2.1-2.5,0.6-2.4-0.8
	c-2.1-5.3-4.8-10.1-6.2-15.6c-1-2.3-1-5.9-3.3-7.1c-2.8,4-3.7,9.2-2.4,13.9c2.2,5,4,11,8,14.8c1.3,2.5-1.3,4.5-3,1.9
	C18,69.4,13.2,62.4,7.9,56.1c-0.4-0.1-0.6-0.2-0.7,0.2c-2,8.6,2.4,15.4,7.1,22.1c1.2,4.9-8.9-5.7-10.9-6C-3.4,69,4.3,83.2,5.7,85.5
	c-7.6-5.2-5.6,7.9-3,11.5c-4.9,2.8-2.1,8.8,0.5,12.3c-3.1,3.8,1,8.4,3.9,10.8c-2,4.2,1.8,8.3,4.8,10.8c-0.4,2.8,1,5.9,3.5,7.3
	c-0.8,2.8,1.8,4.6,1.5,7.4c0.3,0.9,0.9,1.7,1.7,2c-0.3,1.1,0,2.2,0.6,3.2c3.9,5.1,6.1,11.1,10.8,15.8c1.1,3.6,3.9,6.5,5.9,9.6
	c0.9,4.1,3.7,7.8,6.8,10.5c-0.7,2.1,4.8,7.6,6.5,8.9c0.5,1.8,1.4,3.8,3.3,4.4c1.1,1.4,2,4.5,4.2,4.2c0.7,1.9,1.7,4.1,3.8,4.8
	c-0.4,2.4,2.4,4.1,4.3,5.1c0.7,4.5,4.3,6.4,6.7,9.7c2.6,1.5,4.2,3.2,6.2,5.5c1.3,0.9,4,0.9,3.1,3.4c-2,4.5-8.3,5.3-12.7,7.4
	c-7.8,4-10.2,13.9-15.1,20.6c-1.9,1.9-4.9,2.1-7.6,1.9c-7.2-1-9.8,8-15.7,10.8c3.6,1.1,7.1-0.3,10.3-1.7c-1.7,1.7-4.1,3-5.2,5.2
	c-0.6,3.2,3.1,0.5,4-0.7c6.6-8.5,20.8-14.2,29.8-6.7c-7.8-4-15.8,1.6-22.2,5.9c-0.5,0.2-1.3,0.1-1.5-0.4c0.9,2.2,3,1.3,4.5,2.8
	c-3.6,1.1-2.8,0.3-3.8,4.1c-0.5,0.7-1.4,0.9-2.3,1.2c-2.1,0.1-3.5,4.1-5.2,2c-0.1,1.1,0.7,2.2,1.8,2c0.9,1.8-0.8,3.8-2.9,3.1
	c0.7,1,1.4,1.4,2.6,1.4C38.1,293.3,37,296,34.2,296z"/>
</clipPath>
</svg>
