<svg width="148" height="33" viewBox="0 0 148 33" fill="none" xmlns="http://www.w3.org/2000/svg">
<path d="M5.21545 32.2729V9.68814L0 10.3401V32.2729H5.21545Z" fill="white"/>
<path d="M35.1417 26.3589L36.9112 32.2729H41.987L35.3745 10.8523H29.2743L22.755 32.2729H25.6887L27.4582 26.3589H35.1417ZM34.3966 23.8444H28.2033L31.3233 13.46L34.3966 23.8444Z" fill="white"/>
<path d="M49.7869 32.2729V9.68814L44.5714 10.3401V32.2729H49.7869Z" fill="white"/>
<path d="M59.9074 15.6952V9.68814L54.692 10.3401V32.2729H57.1135L58.4639 31.0622C59.8298 32.1487 61.3665 32.692 63.074 32.692C67.7927 32.692 70.1521 29.7583 70.1521 23.8909C70.1521 18.0235 67.7927 15.0899 63.074 15.0899C62.0185 15.0899 60.963 15.2916 59.9074 15.6952ZM59.9074 29.3858V17.8838C60.5283 17.7286 61.0716 17.651 61.5373 17.651C62.779 17.651 63.6638 18.1632 64.1916 19.1877C64.7193 20.2122 64.9832 21.7799 64.9832 23.8909C64.9832 27.8025 63.819 29.7583 61.4907 29.7583C60.994 29.7583 60.4662 29.6341 59.9074 29.3858Z" fill="white"/>
<path d="M88.6259 15.509H83.457V28.7804C82.6809 29.5876 81.8737 29.9911 81.0355 29.9911C80.1973 29.9911 79.623 29.7117 79.3126 29.1529C79.0021 28.5941 78.8469 27.7715 78.8469 26.6849V15.509H73.6315V27.3834C73.6315 30.9225 75.4631 32.692 79.1263 32.692C81.1132 32.692 82.7275 31.9935 83.9692 30.5965L85.3197 32.2729H88.6259V15.509Z" fill="white"/>
<path d="M93.7715 15.3227V15.509H91.2569V18.1632H93.7715V32.2729H98.9404V18.1632H102.107V15.509H98.9404V14.2051C98.9404 13.6773 99.0801 13.2427 99.3595 12.9012C99.6699 12.5287 100.105 12.3424 100.663 12.3424C101.626 12.3424 102.464 12.9012 103.178 14.0188L104.715 10.2935C103.162 9.57949 101.657 9.22247 100.198 9.22247C95.9135 9.22247 93.7715 11.2559 93.7715 15.3227Z" fill="white"/>
<path d="M118.285 24.5894V24.0306C118.285 18.0701 115.801 15.0899 110.834 15.0899C105.743 15.0899 103.197 18.0235 103.197 23.8909C103.197 26.8401 103.787 29.0443 104.967 30.5034C106.177 31.9625 108.087 32.692 110.694 32.692C113.333 32.692 115.18 32.2263 116.236 31.295C117.291 30.3637 117.897 29.0909 118.052 27.4765L113.768 27.3834C113.768 29.215 112.929 30.1308 111.253 30.1308C110.26 30.1308 109.53 29.7428 109.064 28.9667C108.599 28.1595 108.366 26.7004 108.366 24.5894H118.285ZM113.255 22.0283H108.459C108.583 20.3208 108.816 19.1722 109.158 18.5823C109.53 17.9615 110.104 17.651 110.88 17.651C111.688 17.651 112.262 18.008 112.603 18.722C112.976 19.405 113.193 20.5071 113.255 22.0283Z" fill="white"/>
<path d="M124.435 15.509H122.06V32.2729H127.276V21.8886C127.276 20.9262 127.602 20.2122 128.254 19.7465C128.937 19.2808 130.132 19.048 131.839 19.048V15.3693C129.573 15.3693 127.803 16.3937 126.531 18.4426L124.435 15.509Z" fill="white"/>
<path d="M143.25 30.3171L144.554 32.2729H148V20.9107C148 17.0301 145.625 15.0899 140.875 15.0899C138.485 15.0899 136.777 15.571 135.753 16.5334C134.729 17.4647 134.123 18.9238 133.937 20.9107L138.221 21.4229C138.345 18.9083 139.183 17.651 140.736 17.651C142.133 17.651 142.831 18.6289 142.831 20.5847V22.2611L139.944 22.8199C137.491 23.2545 135.753 23.8599 134.729 24.636C133.704 25.3811 133.192 26.4831 133.192 27.9422C133.192 29.4013 133.626 30.5655 134.496 31.4347C135.396 32.2729 136.576 32.692 138.035 32.692C140.208 32.692 141.946 31.9004 143.25 30.3171ZM137.802 27.8025C137.802 26.2192 138.78 25.2103 140.736 24.7757L142.831 24.3566V28.501C141.9 29.4944 141.015 29.9911 140.177 29.9911C138.594 29.9911 137.802 29.2616 137.802 27.8025Z" fill="white"/>
<path d="M23 7.0613C23 5.02299 22.3411 3.34866 21.0234 2.03831C19.7563 0.679436 18.1345 0 16.1579 0C14.232 0 12.7115 0.533844 11.5965 1.60153C10.5322 2.62069 10 3.93103 10 5.53257C10 7.08557 10.4815 8.37165 11.4444 9.3908C12.4074 10.41 13.6491 10.9195 15.1696 10.9195C16.6901 10.9195 18.0078 10.4828 19.1228 9.60919C19.1228 11.3078 18.3879 12.8608 16.9181 14.2682C15.499 15.6271 13.8772 16.5006 12.0526 16.8889L13.193 19C16.2339 18.4662 18.616 17.1801 20.3392 15.1418C22.1131 13.0549 23 10.3614 23 7.0613Z" fill="white"/>
</svg>
