<svg width="148" height="33" fill="none" xmlns="http://www.w3.org/2000/svg"><path d="M5.215 32.273V9.688L0 10.34v21.933h5.215ZM35.142 26.359l1.77 5.914h5.075l-6.613-21.42h-6.1l-6.519 21.42h2.934l1.77-5.914h7.683Zm-.745-2.515h-6.194l3.12-10.384 3.074 10.384ZM49.787 32.273V9.688l-5.216.652v21.933h5.216ZM59.907 15.695V9.688l-5.215.652v21.933h2.422l1.35-1.21c1.366 1.086 2.903 1.629 4.61 1.629 4.719 0 7.078-2.934 7.078-8.801s-2.36-8.801-7.078-8.801a8.812 8.812 0 0 0-3.167.605Zm0 13.69V17.885c.621-.155 1.165-.233 1.63-.233 1.242 0 2.127.512 2.655 1.537.527 1.024.791 2.592.791 4.703 0 3.912-1.164 5.867-3.492 5.867-.497 0-1.025-.124-1.584-.372ZM88.626 15.509h-5.169V28.78c-.776.808-1.583 1.211-2.421 1.211-.839 0-1.413-.28-1.723-.838-.31-.559-.466-1.381-.466-2.468V15.509h-5.215v11.874c0 3.54 1.831 5.309 5.494 5.309 1.987 0 3.602-.698 4.843-2.096l1.35 1.677h3.307V15.509ZM93.772 15.323v.186h-2.515v2.654h2.514v14.11h5.17v-14.11h3.166V15.51H98.94v-1.304c0-.528.14-.962.42-1.304.31-.372.745-.559 1.303-.559.963 0 1.801.56 2.515 1.677l1.537-3.726c-1.553-.714-3.058-1.07-4.517-1.07-4.284 0-6.426 2.033-6.426 6.1ZM118.285 24.59v-.56c0-5.96-2.484-8.94-7.451-8.94-5.091 0-7.637 2.933-7.637 8.8 0 2.95.59 5.154 1.77 6.613 1.21 1.46 3.12 2.189 5.727 2.189 2.639 0 4.486-.466 5.542-1.397 1.055-.931 1.661-2.204 1.816-3.819l-4.284-.093c0 1.832-.839 2.748-2.515 2.748-.993 0-1.723-.388-2.189-1.164-.465-.807-.698-2.267-.698-4.378h9.919Zm-5.03-2.562h-4.796c.124-1.707.357-2.856.699-3.446.372-.62.946-.931 1.722-.931.808 0 1.382.357 1.723 1.071.373.683.59 1.785.652 3.306ZM124.435 15.509h-2.375v16.764h5.216V21.889c0-.963.326-1.677.978-2.142.683-.466 1.878-.699 3.585-.699v-3.679c-2.266 0-4.036 1.025-5.308 3.074l-2.096-2.934ZM143.25 30.317l1.304 1.956H148V20.91c0-3.88-2.375-5.821-7.125-5.821-2.39 0-4.098.481-5.122 1.443-1.024.932-1.63 2.39-1.816 4.378l4.284.512c.124-2.515.962-3.772 2.515-3.772 1.397 0 2.095.978 2.095 2.934v1.676l-2.887.559c-2.453.434-4.191 1.04-5.215 1.816-1.025.745-1.537 1.847-1.537 3.306 0 1.46.434 2.623 1.304 3.493.9.838 2.08 1.257 3.539 1.257 2.173 0 3.911-.792 5.215-2.375Zm-5.448-2.515c0-1.583.978-2.592 2.934-3.026l2.095-.42v4.145c-.931.993-1.816 1.49-2.654 1.49-1.583 0-2.375-.73-2.375-2.189ZM23 7.061c0-2.038-.659-3.712-1.977-5.023C19.756.68 18.134 0 16.158 0c-1.926 0-3.447.534-4.562 1.602C10.533 2.62 10 3.93 10 5.532c0 1.554.482 2.84 1.444 3.859.963 1.019 2.205 1.528 3.726 1.528 1.52 0 2.838-.436 3.953-1.31 0 1.699-.735 3.252-2.205 4.66-1.419 1.358-3.04 2.232-4.865 2.62L13.193 19c3.04-.534 5.423-1.82 7.146-3.858C22.113 13.055 23 10.362 23 7.062Z" fill="#fff"/></svg>